<?xml version="1.0" encoding="UTF-8"?>
<svg id="Layer_1" data-name="Layer 1" xmlns="http://www.w3.org/2000/svg" viewBox="0 0 191.8 61.6">
  <path d="M169.42,57.62c-7.69,0-14.15-2.58-19.22-7.67-5.07-5.09-7.63-11.47-7.63-18.96s2.57-13.87,7.63-18.96c5.07-5.09,11.53-7.67,19.22-7.67,4.62,0,8.96,1.11,12.88,3.3,3.92,2.19,7.03,5.21,9.22,8.97l.25.43-8.08,4.69-.25-.45c-1.29-2.4-3.2-4.33-5.68-5.74-2.48-1.41-5.29-2.13-8.36-2.13-5.21,0-9.49,1.67-12.71,4.96-3.23,3.3-4.86,7.54-4.86,12.61s1.64,9.32,4.86,12.61c3.22,3.29,7.5,4.96,12.71,4.96,3.07,0,5.89-.72,8.39-2.13,2.5-1.41,4.39-3.34,5.63-5.73l.24-.46,8.09,4.61-.25.43c-2.15,3.76-5.23,6.79-9.15,9.01-3.92,2.22-8.28,3.34-12.95,3.34Z"/>
  <path d="M118.29,5.5v50.6h-8.8V21.1l-15.4,24.1-15.3-24.2v35.1h-8.8V5.5h9.3l14.9,24.9,14.9-24.9h9.3-.1Z"/>
  <path d="M131.29,47.6V5.5h-8.7v50.6h30.3c-1.7-1.1-3.4-2.5-4.9-4s-2.6-2.9-3.7-4.5h-13Z"/>
  <g>
    <path d="M30.7,5.5c-13.9,0-25.2,11.3-25.2,25.3s11.3,25.2,25.2,25.2,25.3-11.3,25.3-25.2S44.7,5.6,30.7,5.5h0ZM24.5,44h-3.2v-15.7h3.2v15.7ZM29.2,34.5V14.1h3.2v20.4h-3.2ZM40.2,44h-3.2v-19.8h3.2v19.8Z"/>
    <path d="M31.1,0h-.2C13.9,0,.1,13.6,0,30.5c-.1,17,13.5,30.9,30.5,31.1h.2c16.9,0,30.6-13.6,30.8-30.5C61.5,14.1,48,.2,31,0h.1ZM30.8,58.9c-15.5,0-28-12.5-28-28S15.3,2.8,30.8,2.8s28.1,12.6,28.1,28.1-12.5,28-28.1,28h0Z"/>
  </g>
</svg>